<?xml version="1.0" encoding="utf-8"?>
<!-- Generator: Adobe Illustrator 16.0.0, SVG Export Plug-In . SVG Version: 6.00 Build 0)  -->
<!DOCTYPE svg PUBLIC "-//W3C//DTD SVG 1.1//EN" "http://www.w3.org/Graphics/SVG/1.1/DTD/svg11.dtd">
<svg version="1.1" id="Capa_1" xmlns="http://www.w3.org/2000/svg" xmlns:xlink="http://www.w3.org/1999/xlink" x="0px" y="0px"
	 width="595.28px" height="841.89px" viewBox="0 0 595.28 841.89" enable-background="new 0 0 595.28 841.89" xml:space="preserve">
<g>
	<defs>
		<path id="SVGID_1_" d="M520.142,249.361C507.068,329.89,626.16,527.965,575.904,602.84
			c-57.619,85.84-452.464,83.732-492.967-70.189c-16.841-64.002,41.999-120.855-33.599-199.927
			c-80.523-84.226-4.307-216.843,85.747-205.474c83.101,10.492,273.913-93.737,368.876-41.391
			C584.985,130.523,527.16,206.121,520.142,249.361z"/>
	</defs>
	<clipPath id="SVGID_2_">
		<use xlink:href="#SVGID_1_"  overflow="visible"/>
	</clipPath>
	<rect x="-1.648" y="-29.338" clip-path="url(#SVGID_2_)" fill="#2BA590" width="595.28" height="841.89"/>
	<g clip-path="url(#SVGID_2_)">
		<g>
			<path fill="#8FBFC1" d="M480.859,521.934l94.324,294.678h66.904c0,0-42.098-138.148-58.635-190.479
				c-16.538-52.33-7.518-110.781-33.077-151.844h-70.983L480.859,521.934z"/>
			<path fill="#8FBFC1" d="M542.722,816.6h-72.04c0,0-5.251-36.082-33.818-173.643c-14.433-69.527-13.711-114.469-9.132-141.99
				c0.846-5.275,1.866-9.904,2.936-13.936c1.369-5.176,2.837-9.383,4.23-12.742h57.607v47.654l13.264,77.814L542.722,816.6z"/>
		</g>
		<path fill="#131317" d="M566.014,474.289l-14.035,2.713l-59.474,11.473l-12.591,2.438l-52.183,10.055
			c0.846-5.275,1.866-9.904,2.936-13.936l4.23-12.742H566.014z"/>
		<g>
			<path fill="#131317" d="M472.173,522.354c6.383,4.707,11.698,10.93,14.993,18.141c1.664,3.645,2.806,7.502,3.941,11.344
				c6.279,21.25,12.56,42.498,18.84,63.748"/>
		</g>
		<g>
			<path fill="#131317" d="M577.158,605.979c1.037,23.846,3.12,47.646,6.238,71.311"/>
		</g>
		<g>
			<path fill="#131317" d="M502.096,694.961c-2.843,20.402-7.721,40.52-14.54,59.959"/>
		</g>
		<g>
			<path fill="#FFFFFF" d="M355.359,594.08l-4.085-4.926c1.428-1.951,2.536-4.074,3.32-6.295l6.374,0.596
				c1.212,0.113,2.285-0.777,2.397-1.988l0.709-7.598c0.113-1.211-0.777-2.285-1.988-2.398l-6.374-0.594
				c-0.36-2.328-1.057-4.619-2.099-6.801l4.926-4.084c0.937-0.777,1.066-2.166,0.29-3.102l-4.871-5.873
				c-0.776-0.938-2.165-1.066-3.102-0.289l-4.926,4.084c-1.95-1.428-4.073-2.535-6.294-3.32l0.595-6.375
				c0.113-1.211-0.777-2.283-1.988-2.396l-7.598-0.709c-1.211-0.113-2.284,0.777-2.397,1.988l-0.595,6.375
				c-2.328,0.359-4.619,1.055-6.8,2.098l-4.085-4.926c-0.776-0.938-2.165-1.066-3.102-0.289l-5.873,4.871
				c-0.937,0.775-1.066,2.164-0.29,3.102l4.085,4.924c-1.427,1.951-2.535,4.074-3.319,6.295l-6.374-0.594
				c-1.212-0.113-2.285,0.777-2.398,1.988l-0.709,7.598c-0.113,1.211,0.777,2.283,1.988,2.396l6.375,0.596
				c0.359,2.326,1.056,4.619,2.098,6.799l-4.926,4.086c-0.937,0.775-1.066,2.164-0.289,3.102l4.87,5.873
				c0.777,0.936,2.166,1.066,3.102,0.289l4.926-4.086c1.95,1.428,4.073,2.537,6.294,3.32l-0.594,6.375
				c-0.113,1.211,0.776,2.285,1.988,2.398l7.597,0.709c1.212,0.111,2.285-0.777,2.398-1.99l0.595-6.373
				c2.327-0.359,4.619-1.057,6.8-2.098l4.085,4.926c0.776,0.936,2.165,1.064,3.101,0.289l5.874-4.871
				C356.007,596.404,356.136,595.016,355.359,594.08z M318.051,585.752c-6.129-7.391-5.106-18.35,2.284-24.479
				s18.35-5.107,24.479,2.283c6.129,7.391,5.106,18.352-2.284,24.48S324.18,593.143,318.051,585.752z"/>
		</g>
		<g>
			<path fill="#C1C5D7" d="M341.173,515.916l-3.144-3.791c1.099-1.5,1.951-3.135,2.555-4.844l4.906,0.457
				c0.932,0.088,1.758-0.598,1.845-1.529l0.546-5.848c0.087-0.932-0.599-1.758-1.53-1.846l-4.905-0.457
				c-0.277-1.791-0.813-3.555-1.615-5.232l3.791-3.145c0.721-0.598,0.82-1.666,0.223-2.387l-3.749-4.52
				c-0.598-0.721-1.666-0.82-2.387-0.223l-3.79,3.143c-1.501-1.098-3.136-1.951-4.845-2.555l0.458-4.906
				c0.087-0.932-0.598-1.758-1.53-1.844l-5.847-0.547c-0.933-0.086-1.759,0.598-1.846,1.531l-0.457,4.904
				c-1.792,0.277-3.556,0.814-5.233,1.615l-3.144-3.791c-0.598-0.721-1.667-0.82-2.387-0.223l-4.521,3.75
				c-0.721,0.598-0.82,1.666-0.223,2.387l3.144,3.789c-1.099,1.502-1.951,3.137-2.556,4.846l-4.905-0.459
				c-0.932-0.086-1.758,0.6-1.845,1.531l-0.546,5.846c-0.087,0.934,0.599,1.76,1.53,1.846l4.905,0.457
				c0.277,1.793,0.813,3.557,1.615,5.234l-3.791,3.143c-0.721,0.598-0.82,1.666-0.223,2.387l3.749,4.521
				c0.598,0.721,1.666,0.82,2.387,0.223l3.791-3.145c1.5,1.098,3.135,1.951,4.844,2.555l-0.458,4.906
				c-0.087,0.932,0.599,1.758,1.53,1.846l5.847,0.545c0.933,0.088,1.759-0.598,1.846-1.529l0.458-4.906
				c1.791-0.277,3.555-0.813,5.232-1.615l3.144,3.791c0.598,0.721,1.667,0.82,2.388,0.223l4.52-3.748
				C341.671,517.705,341.771,516.637,341.173,515.916z M312.46,509.506c-4.717-5.688-3.93-14.121,1.759-18.838
				c5.688-4.717,14.122-3.93,18.839,1.758s3.93,14.123-1.758,18.84C325.611,515.982,317.177,515.195,312.46,509.506z"/>
		</g>
		<polygon fill="#E4E2D1" points="201.652,292.46 393.47,269.548 422.742,436.127 212.44,461.248 		"/>
		<circle fill="#575767" cx="215.918" cy="303.236" r="4.777"/>
		<path fill="#131317" d="M216.262,306.114L216.262,306.114c-1.323,0.158-2.536-0.795-2.694-2.119l-2.425-20.301
			c-0.158-1.324,0.795-2.536,2.119-2.694h0c1.323-0.158,2.536,0.795,2.693,2.119l2.425,20.301
			C218.539,304.743,217.585,305.956,216.262,306.114z"/>
		<circle fill="#575767" cx="239.488" cy="300.421" r="4.777"/>
		<path fill="#131317" d="M239.832,303.298L239.832,303.298c-1.323,0.158-2.536-0.795-2.693-2.119l-2.425-20.301
			c-0.158-1.323,0.795-2.535,2.119-2.693v0c1.324-0.158,2.536,0.795,2.694,2.119l2.425,20.301
			C242.109,301.928,241.156,303.14,239.832,303.298z"/>
		<circle fill="#575767" cx="263.058" cy="297.605" r="4.777"/>
		<path fill="#131317" d="M263.402,300.482L263.402,300.482c-1.323,0.158-2.536-0.795-2.693-2.119l-2.425-20.301
			c-0.158-1.323,0.795-2.536,2.118-2.694l0,0c1.324-0.158,2.536,0.795,2.694,2.119l2.425,20.301
			C265.679,299.113,264.725,300.325,263.402,300.482z"/>
		<circle fill="#575767" cx="286.628" cy="294.79" r="4.777"/>
		<path fill="#131317" d="M286.972,297.667L286.972,297.667c-1.323,0.158-2.535-0.796-2.693-2.119l-2.425-20.301
			c-0.158-1.323,0.795-2.536,2.119-2.693l0,0c1.323-0.158,2.535,0.795,2.693,2.119l2.425,20.301
			C289.249,296.297,288.295,297.509,286.972,297.667z"/>
		<circle fill="#BBBDBF" cx="310.198" cy="291.974" r="4.778"/>
		<path fill="#131317" d="M310.542,294.852L310.542,294.852c-1.323,0.158-2.535-0.795-2.693-2.119l-2.426-20.301
			c-0.158-1.324,0.796-2.536,2.12-2.693l0,0c1.323-0.158,2.535,0.795,2.693,2.119l2.425,20.301
			C312.818,293.481,311.865,294.694,310.542,294.852z"/>
		<g>
			<circle fill="#BBBDBF" cx="333.768" cy="289.159" r="4.777"/>
			<path fill="#424043" d="M336.015,291.809l-3.805,0.455c-0.277,0.033-0.531-0.167-0.564-0.443l-2.879-24.106
				c-0.033-0.277,0.166-0.531,0.443-0.564l3.805-0.454c0.277-0.033,0.531,0.167,0.564,0.443l2.879,24.105
				C336.491,291.521,336.291,291.775,336.015,291.809z"/>
		</g>
		<circle fill="#575767" cx="357.338" cy="286.343" r="4.777"/>
		<path fill="#131317" d="M357.683,289.221L357.683,289.221c-1.324,0.158-2.536-0.795-2.694-2.119l-2.425-20.301
			c-0.158-1.323,0.795-2.535,2.118-2.693h0.001c1.323-0.158,2.535,0.795,2.693,2.119l2.425,20.301
			C359.959,287.85,359.005,289.062,357.683,289.221z"/>
		<circle fill="#575767" cx="380.908" cy="283.528" r="4.777"/>
		<path fill="#131317" d="M381.252,286.405L381.252,286.405c-1.323,0.158-2.535-0.795-2.693-2.119l-2.426-20.301
			c-0.157-1.323,0.796-2.536,2.119-2.693v0c1.324-0.158,2.536,0.795,2.694,2.119l2.425,20.301
			C383.529,285.035,382.575,286.247,381.252,286.405z"/>
		<polygon fill="#C1C5D7" points="238.221,366.289 218.605,368.632 217.41,349.148 236.761,346.836 		"/>
		<polygon fill="#C1C5D7" points="264.303,363.174 244.687,365.517 243.139,346.074 262.49,343.763 		"/>
		<polygon fill="#C1C5D7" points="290.384,360.058 270.769,362.401 268.869,343.001 288.22,340.689 		"/>
		<polygon fill="#C1C5D7" points="316.467,356.942 296.851,359.286 294.599,339.928 313.949,337.616 		"/>
		<polygon fill="#C1C5D7" points="342.548,353.827 322.932,356.17 320.327,336.854 339.679,334.542 		"/>
		<polygon fill="#D0D3D3" points="368.63,350.711 349.014,353.055 346.057,333.781 365.407,331.469 		"/>
		<polygon fill="#C1C5D7" points="394.711,347.596 375.096,349.939 371.786,330.707 391.137,328.396 		"/>
		<polygon fill="#C1C5D7" points="240.046,390.607 220.099,392.99 218.904,373.505 238.586,371.154 		"/>
		<polygon fill="#C1C5D7" points="266.568,387.439 246.621,389.822 245.074,370.379 264.756,368.028 		"/>
		<polygon fill="#C1C5D7" points="293.091,384.271 273.143,386.654 271.244,367.253 290.926,364.902 		"/>
		<polygon fill="#C1C5D7" points="319.612,381.102 299.665,383.486 297.413,364.127 317.096,361.776 		"/>
		<polygon fill="#C1C5D7" points="346.135,377.934 326.188,380.317 323.583,361.001 343.266,358.65 		"/>
		<polygon fill="#D0D3D3" points="372.656,374.767 352.709,377.149 349.753,357.875 369.436,355.524 		"/>
		<polygon fill="#D0D3D3" points="399.179,371.598 379.231,373.981 375.923,354.749 395.605,352.398 		"/>
		<polygon fill="#C1C5D7" points="241.872,414.926 221.593,417.348 220.398,397.863 240.412,395.473 		"/>
		<polygon fill="#C1C5D7" points="268.834,411.705 248.556,414.127 247.008,394.684 267.021,392.293 		"/>
		<polygon fill="#C1C5D7" points="295.796,408.484 275.518,410.906 273.619,391.505 293.632,389.115 		"/>
		<polygon fill="#C1C5D7" points="322.759,405.264 302.48,407.686 300.229,388.327 320.242,385.936 		"/>
		<polygon fill="#C1C5D7" points="349.722,402.043 329.443,404.465 326.839,385.148 346.853,382.757 		"/>
		<polygon fill="#C1C5D7" points="376.685,398.822 356.405,401.244 353.449,381.97 373.462,379.58 		"/>
		<polygon fill="#C1C5D7" points="403.646,395.602 383.368,398.023 380.059,378.792 400.072,376.401 		"/>
		<polygon fill="#C1C5D7" points="243.697,439.242 223.087,441.705 221.892,422.221 242.236,419.791 		"/>
		<polygon fill="#C1C5D7" points="271.1,435.971 250.49,438.432 248.942,418.988 269.288,416.559 		"/>
		<polygon fill="#C1C5D7" points="298.502,432.697 277.893,435.158 275.994,415.758 296.338,413.328 		"/>
		<polygon fill="#C1C5D7" points="325.905,429.424 305.296,431.885 303.044,412.527 323.389,410.096 		"/>
		<polygon fill="#C1C5D7" points="353.309,426.15 332.698,428.611 330.095,409.295 350.439,406.865 		"/>
		<polygon fill="#C1C5D7" points="380.711,422.877 360.102,425.338 357.146,406.064 377.489,403.635 		"/>
		<polygon fill="#C1C5D7" points="408.114,419.604 387.504,422.064 384.195,402.834 404.54,400.402 		"/>
		<polygon fill="#C1C5D7" points="308.891,327.175 388.431,317.674 385.593,301.975 307.002,311.363 		"/>
		<g>
			<path fill="#FFFFFF" d="M282.22,382.888c-0.06,0.007-0.116,0.009-0.177,0.012c-0.496,0.012-0.971-0.185-1.314-0.538l-5.16-5.276
				c-0.695-0.707-0.68-1.84,0.026-2.531c0.712-0.691,1.846-0.676,2.532,0.027l3.831,3.912l9.525-10.531
				c0.664-0.728,1.795-0.788,2.531-0.124c0.732,0.664,0.788,1.794,0.124,2.532l-10.804,11.942
				C283.044,382.634,282.646,382.837,282.22,382.888z"/>
		</g>
		<g>
			
				<rect x="290.564" y="158.019" transform="matrix(0.9476 -0.3193 0.3193 0.9476 -35.1371 104.7423)" fill="#E4E2D1" width="22.544" height="3"/>
		</g>
		<g>
			
				<rect x="290.623" y="167.706" transform="matrix(0.9476 -0.3193 0.3193 0.9476 -38.0591 106.2892)" fill="#E4E2D1" width="28.952" height="3"/>
		</g>
		<g>
			
				<rect x="345.808" y="184.811" transform="matrix(0.9301 -0.3672 0.3672 0.9301 -49.6566 148.6561)" fill="#DDDCDC" width="40.011" height="40.012"/>
		</g>
		<g>
			
				<rect x="436.971" y="171.742" transform="matrix(0.9992 0.0408 -0.0408 0.9992 8.2133 -18.5051)" fill="#DDDCDC" width="40.012" height="40.011"/>
		</g>
		<g>
			
				<rect x="435.805" y="167.698" transform="matrix(0.9885 0.1509 -0.1509 0.9885 33.5498 -66.6421)" fill="#006D5B" width="40.011" height="40.011"/>
		</g>
		<g>
			
				<rect x="342.213" y="181.156" transform="matrix(0.9505 -0.3107 0.3107 0.9505 -44.5698 122.4761)" fill="#006D5B" width="40.012" height="40.011"/>
		</g>
		<g>
			
				<rect x="348.424" y="190.176" transform="matrix(0.9505 -0.3106 0.3106 0.9505 -41.7002 121.502)" fill="#E4E2D1" width="24.402" height="2.999"/>
		</g>
		<g>
			<path fill="#E4E2D1" d="M373.604,199.798c-1.262,0.546-2.69,0.705-4.035,0.376c-0.555-0.136-1.097-0.346-1.62-0.548
				c-1.05-0.407-2.041-0.791-2.996-0.544c-1.18,0.305-1.923,1.466-2.702,2.696c-0.876,1.382-1.785,2.812-3.442,3.125
				c-1.268,0.239-2.404-0.31-3.504-0.84c-0.921-0.444-1.791-0.864-2.68-0.811c-1.538,0.096-2.652,1.634-2.957,3.106
				c-0.056,0.271-0.32,0.444-0.592,0.388c-0.271-0.057-0.444-0.321-0.388-0.591c0.382-1.845,1.834-3.78,3.876-3.901
				c1.149-0.07,2.179,0.426,3.175,0.908c0.997,0.481,1.939,0.936,2.884,0.757c1.238-0.227,1.987-1.42,2.783-2.677
				c0.849-1.339,1.728-2.722,3.297-3.13c1.267-0.326,2.457,0.135,3.607,0.581c0.517,0.2,1.006,0.39,1.497,0.51
				c2.18,0.534,4.626-0.459,5.818-2.357c0.148-0.234,0.457-0.304,0.689-0.158c0.234,0.147,0.305,0.456,0.158,0.689
				C375.793,198.46,374.77,199.294,373.604,199.798z"/>
		</g>
		<g>
			<path fill="#E4E2D1" d="M363.874,214.767c-0.221,0.095-0.455,0.168-0.708,0.216c-1.269,0.24-2.405-0.31-3.505-0.841
				c-0.921-0.444-1.79-0.864-2.68-0.811c-1.539,0.096-2.651,1.635-2.957,3.106c-0.056,0.271-0.32,0.445-0.591,0.389
				c-0.271-0.057-0.444-0.321-0.389-0.591c0.382-1.845,1.834-3.78,3.876-3.901c1.149-0.071,2.18,0.427,3.176,0.907
				c0.997,0.481,1.939,0.937,2.885,0.759c1.235-0.232,1.985-1.42,2.781-2.678c0.849-1.339,1.723-2.723,3.298-3.13
				c1.266-0.325,2.455,0.135,3.605,0.581c0.517,0.2,1.006,0.389,1.498,0.51c0.269,0.066,0.433,0.336,0.367,0.604
				c-0.066,0.268-0.336,0.432-0.604,0.367c-0.556-0.135-1.098-0.346-1.622-0.549c-1.049-0.406-2.04-0.79-2.995-0.543
				c-1.183,0.309-1.923,1.467-2.701,2.697C365.865,213.031,365.101,214.237,363.874,214.767z"/>
		</g>
		<g>
			<path fill="#E4E2D1" d="M300.775,143.508c-4.979,2.523-8.749,6.848-11.445,11.586c-1.354,2.378-2.45,4.904-3.177,7.52
				c-0.701,2.597-1.149,5.352-0.81,7.93c0.166,1.297,0.603,2.541,1.141,3.727c0.578,1.174,1.319,2.265,2.163,3.276
				c1.746,1.977,3.927,3.584,6.34,4.687c2.402,1.116,5.02,1.781,7.635,1.761c2.616-0.033,5.233-0.653,7.588-1.849
				c4.75-2.3,8.546-6.595,10.325-11.573c0.907-2.499,1.378-5.179,1.412-7.854c0.02-2.671-0.364-5.372-1.366-7.828
				c-0.987-2.455-2.631-4.633-4.821-6.097c-0.276-0.178-0.536-0.387-0.826-0.542l-0.896-0.424c-0.302-0.131-0.591-0.31-0.904-0.405
				l-0.938-0.3c-1.286-0.318-2.634-0.426-3.985-0.421c-2.712,0.039-5.435,0.603-8,1.579c-2.544,1.001-5.005,2.392-6.866,4.471
				c1.695-2.222,4.113-3.816,6.663-4.96c2.567-1.138,5.324-1.874,8.166-2.069c1.421-0.072,2.861-0.009,4.288,0.284l1.059,0.292
				c0.354,0.096,0.673,0.271,1.012,0.403l1.002,0.431c0.327,0.159,0.624,0.375,0.938,0.561c2.499,1.529,4.392,3.94,5.549,6.594
				c1.18,2.663,1.663,5.566,1.68,8.436c0.011,2.874-0.439,5.748-1.379,8.484c-0.954,2.737-2.438,5.299-4.374,7.452
				c-1.917,2.17-4.231,4.007-6.856,5.283c-2.607,1.304-5.531,1.989-8.464,2.007c-1.465-0.013-2.938-0.176-4.352-0.535
				c-1.421-0.33-2.79-0.841-4.095-1.471c-2.617-1.253-4.971-3.042-6.865-5.263c-0.916-1.136-1.731-2.363-2.345-3.7
				c-0.573-1.351-1.021-2.77-1.169-4.239c-0.15-1.474-0.077-2.927,0.134-4.339c0.109-0.708,0.211-1.417,0.398-2.104
				c0.153-0.697,0.338-1.383,0.571-2.054c0.869-2.702,2.094-5.267,3.591-7.649c1.513-2.372,3.291-4.571,5.331-6.492
				C295.858,146.18,298.189,144.542,300.775,143.508z"/>
		</g>
		<g>
			
				<rect x="446.35" y="176.883" transform="matrix(0.9885 0.1509 -0.1509 0.9885 32.1854 -67.2626)" fill="#E4E2D1" width="25.64" height="2.999"/>
		</g>
		<g>
			
				<rect x="445.178" y="184.558" transform="matrix(0.9885 0.1509 -0.1509 0.9885 33.3223 -66.9841)" fill="#E4E2D1" width="25.639" height="2.999"/>
		</g>
		<g>
			
				<rect x="192.659" y="205.431" transform="matrix(0.9834 0.1813 -0.1813 0.9834 44.3983 -34.8216)" fill="#DDDCDC" width="40.011" height="40.011"/>
		</g>
		<g>
			
				<rect x="189.603" y="201.135" transform="matrix(0.9704 0.2417 -0.2417 0.9704 59.6587 -44.1027)" fill="#006D5B" width="40.011" height="40.011"/>
		</g>
		<g>
			<path fill="#E4E2D1" d="M470.63,200.243c-0.024,0-0.049-0.002-0.072-0.005c-1.548-0.226-2.474-1.439-3.369-2.613
				c-0.588-0.769-1.193-1.563-1.951-2.023c-2.201-1.339-4.429-0.11-6.79,1.189c-2.456,1.353-4.998,2.755-7.713,1.373
				c-1.111-0.564-1.909-1.553-2.681-2.508c-0.918-1.137-1.784-2.21-3.049-2.385c-1.646-0.23-3.072,1.279-3.611,1.938
				c-0.176,0.214-0.489,0.246-0.704,0.07c-0.214-0.175-0.245-0.489-0.07-0.703c0.803-0.98,2.455-2.588,4.523-2.296
				c1.656,0.229,2.69,1.509,3.689,2.747c0.705,0.873,1.435,1.776,2.355,2.245c2.245,1.14,4.446-0.073,6.778-1.358
				c2.504-1.38,5.093-2.806,7.79-1.169c0.919,0.559,1.584,1.43,2.228,2.272c0.81,1.062,1.575,2.063,2.717,2.229
				c0.274,0.04,0.463,0.294,0.424,0.567C471.088,200.064,470.874,200.243,470.63,200.243z"/>
		</g>
		<g>
			
				<rect x="201.897" y="210.26" transform="matrix(0.9704 0.2417 -0.2417 0.9704 57.5395 -45.6131)" fill="#E4E2D1" width="25.64" height="2.999"/>
		</g>
		<g>
			<path fill="#E4E2D1" d="M220.216,228.967c-1.787,0-3.58-0.304-5.236-1.13c-1.964-0.979-3.495-2.575-4.976-4.119l-0.264-0.275
				c-1.563-1.626-3.131-3.146-5.113-3.895c-1.735-0.656-4.235-0.614-5.619,1.022c-0.178,0.211-0.494,0.237-0.705,0.06
				c-0.211-0.178-0.237-0.493-0.059-0.704c1.697-2.009,4.681-2.088,6.736-1.313c2.175,0.82,3.9,2.494,5.48,4.137l0.265,0.276
				c1.422,1.482,2.892,3.016,4.701,3.917c3.503,1.746,7.796,0.92,11.146,0.004c0.264-0.069,0.541,0.083,0.614,0.351
				c0.073,0.267-0.084,0.541-0.351,0.614C224.847,228.456,222.536,228.967,220.216,228.967z"/>
		</g>
		<g>
			<path fill="#E4E2D1" d="M223.372,237.12c-0.014,0-0.027-0.001-0.041-0.002c-1.993-0.16-3.896-0.759-5.735-1.338l-14.569-4.579
				c-2.255-0.709-4.587-1.441-6.961-1.671c-0.274-0.027-0.476-0.271-0.449-0.546c0.027-0.275,0.266-0.471,0.546-0.45
				c2.478,0.24,4.86,0.989,7.164,1.714l14.569,4.579c1.787,0.562,3.635,1.143,5.516,1.295c0.275,0.021,0.48,0.263,0.458,0.538
				C223.849,236.921,223.63,237.12,223.372,237.12z"/>
		</g>
		<g>
			<rect x="209.177" y="212.553" fill="#575767" width="40.012" height="40.012"/>
		</g>
		<g>
			<rect x="216.363" y="218.792" fill="#E4E2D1" width="25.64" height="3"/>
		</g>
		<g>
			<path fill="#E4E2D1" d="M237.975,235.079c-1.956,0-3.716-0.527-5.03-1.521c-0.41-0.31-0.789-0.669-1.156-1.018
				c-0.799-0.758-1.554-1.474-2.505-1.592c-1.279-0.158-2.428,0.788-3.69,1.944c-1.133,1.039-2.849,2.358-4.665,1.832
				c-0.748-0.219-1.317-0.7-1.868-1.166c-0.434-0.366-0.843-0.712-1.308-0.905c-0.614-0.256-1.375-0.168-2.034,0.231
				c-0.658,0.4-1.085,1.034-1.142,1.696c-0.023,0.274-0.27,0.469-0.541,0.455c-0.275-0.023-0.479-0.266-0.456-0.541
				c0.083-0.979,0.688-1.9,1.618-2.465c0.931-0.566,2.028-0.678,2.937-0.301c0.608,0.253,1.097,0.666,1.569,1.065
				c0.493,0.417,0.958,0.811,1.502,0.97c1.329,0.383,2.753-0.733,3.709-1.608c1.117-1.025,2.644-2.428,4.489-2.2
				c1.278,0.158,2.189,1.022,3.071,1.858c0.363,0.345,0.706,0.67,1.071,0.946c1.321,0.999,3.193,1.457,5.266,1.284
				c1.917-0.158,3.788-0.79,5.598-1.401c0.263-0.089,0.546,0.053,0.634,0.313c0.088,0.262-0.052,0.546-0.313,0.634
				c-1.867,0.63-3.797,1.282-5.836,1.45C238.585,235.066,238.278,235.079,237.975,235.079z"/>
		</g>
		<g>
			<path fill="#E4E2D1" d="M235.903,243.563c-2.786,0-5.573-0.279-8.277-0.839l-0.805-0.172c-1.29-0.279-2.624-0.579-3.924-0.523
				c-1.813,0.063-3.537,0.764-4.983,1.441c-0.25,0.117-0.548,0.009-0.665-0.241c-0.117-0.25-0.009-0.548,0.241-0.665
				c1.538-0.72,3.378-1.465,5.372-1.535c1.428-0.041,2.822,0.253,4.172,0.547l0.795,0.17c5.045,1.043,10.39,1.088,15.451,0.135
				c0.273-0.05,0.533,0.127,0.584,0.398c0.051,0.271-0.127,0.533-0.398,0.584C240.989,243.33,238.446,243.563,235.903,243.563z"/>
		</g>
		<g>
			
				<rect x="238.078" y="204.371" transform="matrix(0.9813 -0.1927 0.1927 0.9813 -38.4036 53.9439)" fill="#DDDCDC" width="40.011" height="40.011"/>
		</g>
		<g>
			
				<rect x="238.856" y="202.332" transform="matrix(0.9896 -0.1437 0.1437 0.9896 -29.2671 39.512)" fill="#575767" width="40.012" height="40.012"/>
		</g>
		<g>
			
				<rect x="256.584" y="198.304" transform="matrix(0.1439 0.9896 -0.9896 0.1439 429.8773 -74.6522)" fill="#E4E2D1" width="3" height="25.64"/>
		</g>
		<g>
			
				<rect x="258.041" y="208.333" transform="matrix(0.1436 0.9896 -0.9896 0.1436 441.1428 -67.4484)" fill="#E4E2D1" width="3" height="25.64"/>
		</g>
		<g>
			
				<rect x="259.497" y="222.532" transform="matrix(0.1436 0.9896 -0.9896 0.1436 452.3161 -60.2999)" fill="#E4E2D1" width="3" height="17.302"/>
		</g>
		<g>
			<path fill="#E4E2D1" d="M312.014,195.277c1.131,1.644,2.457,3.151,3.919,4.47c1.444,1.336,3.051,2.475,4.771,3.321
				c1.717,0.899,3.605,1.167,5.416,1.54c1.851,0.425,3.74,0.294,5.824,0.398l0.01,0c0.057,0.003,0.101,0.051,0.098,0.107
				c-0.002,0.037-0.023,0.068-0.053,0.084c-0.454,0.249-0.933,0.452-1.418,0.66l-0.738,0.29c-0.248,0.099-0.51,0.117-0.768,0.179
				c-0.518,0.112-1.044,0.183-1.574,0.272c-0.531,0.027-1.066-0.003-1.605-0.005c-2.154-0.116-4.205-0.996-5.964-2.126
				c-1.785-1.112-3.355-2.49-4.715-4.024c-1.325-1.565-2.506-3.237-3.38-5.073c-0.023-0.05-0.002-0.109,0.048-0.133
				c0.045-0.021,0.098-0.006,0.125,0.034L312.014,195.277z"/>
		</g>
		<g>
			<path fill="#FFFFFF" d="M330.303,209.904c0.212-1.114,0.601-2.115,1.029-3.092c0.218-0.485,0.457-0.958,0.709-1.423l0.094-0.174
				l0.05-0.086l0.009-0.025c0.008-0.03,0.012-0.057,0.012-0.084c-0.002-0.053-0.007-0.111-0.038-0.155
				c-0.011-0.023-0.022-0.046-0.039-0.066c-0.024-0.022-0.007-0.016-0.152-0.115l-0.639-0.468c-0.42-0.321-0.833-0.652-1.231-1.006
				c-0.792-0.712-1.558-1.467-2.207-2.397c1.11,0.23,2.105,0.637,3.073,1.085c0.482,0.226,0.949,0.476,1.409,0.735l0.682,0.403
				c0.075,0.043,0.313,0.198,0.476,0.362c0.169,0.168,0.311,0.363,0.418,0.575c0.212,0.426,0.276,0.917,0.192,1.383
				c-0.048,0.232-0.132,0.456-0.246,0.66l-0.089,0.146l-0.057,0.081l-0.117,0.16c-0.313,0.426-0.638,0.844-0.983,1.249
				C331.957,208.457,331.218,209.236,330.303,209.904z"/>
		</g>
		<g>
			<path id="XMLID_00000127042114626939856270000010094864128011791289_" fill="#C1C5D7" d="M424.483,558.682
				c-21.949,9.025-47.148-1.488-56.175-23.436c-9.025-21.949,1.487-47.148,23.437-56.174c21.948-9.027,47.147,1.486,56.174,23.436
				C456.944,524.455,446.432,549.654,424.483,558.682z M394.271,485.215c-18.563,7.633-27.453,28.943-19.82,47.506
				c7.634,18.561,28.944,27.451,47.506,19.818c18.562-7.635,27.452-28.945,19.819-47.506
				C434.143,486.473,412.832,477.582,394.271,485.215z"/>
			<path id="XMLID_00000109712499397815400180000011691850785877522062_" fill="#C1C5D7" d="M432.445,508.871L432.445,508.871
				c-0.456-1.109,0.078-2.389,1.187-2.846l3.455-1.42c1.109-0.457,2.389,0.078,2.845,1.186l0,0c0.456,1.109-0.078,2.389-1.187,2.846
				l-3.456,1.42C434.181,510.514,432.901,509.979,432.445,508.871z"/>
			<path id="XMLID_00000109715042754556040960000002477478986258044573_" fill="#C1C5D7" d="M376.296,531.961L376.296,531.961
				c-0.456-1.107,0.078-2.389,1.187-2.844l3.456-1.422c1.108-0.455,2.388,0.078,2.844,1.188l0,0
				c0.456,1.109-0.078,2.389-1.187,2.844l-3.455,1.422C378.032,533.604,376.752,533.07,376.296,531.961z"/>
			<path id="XMLID_00000018216282098443999080000005233141723984624821_" fill="#C1C5D7" d="M418.12,543.209L418.12,543.209
				c1.108-0.457,2.389,0.076,2.844,1.186l1.422,3.455c0.455,1.109-0.078,2.389-1.188,2.846l0,0
				c-1.108,0.455-2.389-0.078-2.844-1.188l-1.421-3.455C416.478,544.943,417.011,543.664,418.12,543.209z"/>
			<path id="XMLID_00000036946399173449083240000000449205382499150257_" fill="#C1C5D7" d="M395.029,487.059L395.029,487.059
				c1.108-0.455,2.389,0.078,2.845,1.188l1.421,3.455c0.456,1.107-0.078,2.389-1.187,2.844l0,0
				c-1.109,0.457-2.389-0.078-2.845-1.186l-1.421-3.457C393.387,488.795,393.921,487.514,395.029,487.059z"/>
			<path id="XMLID_00000174578815962038289660000001668026774738796178_" fill="#C1C5D7" d="M397.984,543.156L397.984,543.156
				c1.106,0.463,1.634,1.744,1.172,2.852l-1.438,3.447c-0.462,1.107-1.744,1.635-2.851,1.172l0,0
				c-1.106-0.461-1.634-1.744-1.172-2.85l1.438-3.449C395.596,543.223,396.878,542.695,397.984,543.156z"/>
			<path id="XMLID_00000000216801995098343340000015413059316278324157_" fill="#C1C5D7" d="M421.36,487.125L421.36,487.125
				c1.106,0.463,1.634,1.744,1.172,2.852l-1.438,3.447c-0.461,1.107-1.744,1.635-2.851,1.172l0,0
				c-1.106-0.461-1.634-1.744-1.172-2.85l1.438-3.449C418.972,487.191,420.254,486.664,421.36,487.125z"/>
			<path id="XMLID_00000060020977450356951170000017111658860168836002_" fill="#C1C5D7" d="M383.834,508.746L383.834,508.746
				c-0.462,1.107-1.744,1.635-2.851,1.174l-3.448-1.439c-1.106-0.461-1.634-1.744-1.173-2.85l0,0
				c0.462-1.107,1.745-1.635,2.851-1.172l3.448,1.438C383.768,506.357,384.295,507.641,383.834,508.746z"/>
			<path id="XMLID_00000113338368064128518770000012794546853361819322_" fill="#C1C5D7" d="M439.865,532.123L439.865,532.123
				c-0.462,1.105-1.745,1.633-2.851,1.172l-3.448-1.438c-1.106-0.463-1.634-1.744-1.173-2.852l0,0
				c0.462-1.105,1.744-1.633,2.851-1.172l3.448,1.439C439.799,529.734,440.326,531.018,439.865,532.123z"/>
			<circle id="XMLID_00000026164605200862384520000011493732446167920818_" fill="#C1C5D7" cx="408.114" cy="518.877" r="3.56"/>
			<path id="XMLID_00000147942528488387699470000010384902204516966060_" fill="#C1C5D7" d="M406.418,514.752L406.418,514.752
				c-0.354,0.145-0.758-0.023-0.903-0.377l-6.921-16.828c-0.146-0.354,0.023-0.758,0.377-0.904l0,0
				c0.354-0.145,0.758,0.023,0.903,0.377l6.92,16.83C406.939,514.203,406.771,514.607,406.418,514.752z"/>
			<path id="XMLID_00000150799283840767061090000018129947994700529810_" fill="none" d="M412.654,517.01L412.654,517.01
				c-0.145-0.354,0.023-0.758,0.377-0.904l11.116-4.57c0.354-0.146,0.758,0.023,0.903,0.377l0,0
				c0.146,0.354-0.023,0.758-0.377,0.902l-11.116,4.572C413.204,517.531,412.8,517.363,412.654,517.01z"/>
		</g>
		<g>
			<path fill="#D57F6D" d="M609.661,443.035h-43.647v31.254H425.242c3.683-23.117,22.67-27.82,12.417-48.797
				c-6.693-13.662-7.216-27.846-6.768-36.083v-0.025c0-0.024,0-0.024,0-0.05c0.248-4.354,0.771-7.042,0.771-7.042
				s-19.286,10.5-40.736,12.84c-8.859,0.971-18.066,0.547-26.452-2.563c-28.667-10.701-61.092-101.255-61.092-101.255l39.15-11.966
				l26.105,45.793c4.956,8.693,15.409,12.587,24.853,9.277c0.099-0.035,0.197-0.07,0.297-0.104
				c21.476-7.465,58.877-19.086,81.099-17.917c2.016,0.1,4.007,0.224,5.973,0.398c21.624,1.667,40.661,6.943,76.171,32.125
				C601.101,380.152,593.835,410.959,609.661,443.035z"/>
			<path fill="#D57F6D" d="M303.383,291.315c-3.635-7.98-25.807-15.263-22.732-20.604s13.594,3.722,18.611,5.017
				c5.018,1.294,22.334-4.208,14.404-16.508c-7.931-12.299-16.669-13.594-12.462-18.126c4.208-4.531,17.803,6.15,17.803,6.15
				s-4.677-14.075,2.589-14.242c4.208-0.096,7.445,14.08,7.445,14.08s0.971-8.416,5.017-7.606s8.476,39.873,8.476,39.873
				L303.383,291.315z"/>
			<g>
				<g>
					<g>
						<path fill="#131317" d="M319.249,248.865c4.06,4.273,6.655,9.511,7.808,15.281c0.059,0.292,0.484,0.163,0.439-0.121
							c-0.929-5.948-3.674-11.239-7.839-15.569C319.398,248.187,318.992,248.595,319.249,248.865L319.249,248.865z"/>
					</g>
				</g>
				<g>
					<g>
						<path fill="#131317" d="M328.874,248.502c1.282,4.277,2.324,8.614,3.235,12.985c0.065,0.316,0.533,0.179,0.479-0.132
							c-0.778-4.406-1.875-8.722-3.185-12.999C329.3,248.019,328.771,248.162,328.874,248.502L328.874,248.502z"/>
					</g>
				</g>
			</g>
		</g>
		<g>
			<g>
				<path fill="#8B89AE" d="M609.661,443.035h-43.647v31.254H425.242c3.683-23.117,22.67-27.82,12.417-48.797
					c-6.693-13.662-7.216-27.846-6.768-36.083v-0.025c0.024-0.024,0.024-0.05,0.024-0.05h-0.024l-40.736,21.972l0.771-16.174
					l2.861-60.818c18.116-6.295,47.579-15.553,69.677-17.593c4.106-0.373,7.938-0.498,11.422-0.324
					c2.016,0.1,4.007,0.224,5.973,0.398c0.722,0.05,1.443,0.125,2.165,0.199c0.1,0,0.224,0,0.323,0.025
					c8.934,0.821,17.543,2.364,27.198,5.823c1.07,0.423,2.165,0.821,3.285,1.219c7.067,2.787,14.757,6.62,23.541,11.895
					c5.972,3.608,12.491,7.863,19.658,12.964C601.101,380.152,593.835,410.959,609.661,443.035z"/>
				<g>
					<defs>
						<path id="SVGID_3_" d="M609.661,443.035h-43.647v31.254H425.242c3.683-23.117,22.67-27.82,12.417-48.797
							c-6.693-13.662-7.216-27.846-6.768-36.083v-0.025c0.024-0.024,0.024-0.05,0.024-0.05h-0.024l-40.736,21.972l0.771-16.174
							l2.861-60.818c18.116-6.295,47.579-15.553,69.677-17.593c4.106-0.373,7.938-0.498,11.422-0.324
							c2.016,0.1,4.007,0.224,5.973,0.398c0.722,0.05,1.443,0.125,2.165,0.199c0.1,0,0.224,0,0.323,0.025
							c8.934,0.821,17.543,2.364,27.198,5.823c1.07,0.423,2.165,0.821,3.285,1.219c7.067,2.787,14.757,6.62,23.541,11.895
							c5.972,3.608,12.491,7.863,19.658,12.964C601.101,380.152,593.835,410.959,609.661,443.035z"/>
					</defs>
					<clipPath id="SVGID_4_">
						<use xlink:href="#SVGID_3_"  overflow="visible"/>
					</clipPath>
					<g clip-path="url(#SVGID_4_)">
						<path fill="none" d="M381.341,377.961c0.554,5.789,3.663,11.287,8.338,14.746c3.795,2.807,8.424,4.244,12.438,6.729
							c6.548,4.053,11.065,10.613,15.39,16.984c5.613,8.271,11.261,16.604,15.244,25.77c3.17,7.295,5.255,15.051,8.835,22.154
							c8.115,16.102,23.363,27.82,31.021,44.145"/>
						<path fill="none" d="M387.005,364.125c8.553,11.658,19.034,21.898,30.889,30.176c7.71,5.385,16.041,9.982,22.916,16.396
							c13.393,12.496,19.889,30.455,27.387,47.166c7.499,16.711,17.573,33.893,34.354,41.234"/>
						<path fill="none" d="M389.188,326.328c1.765,18.393,12.307,34.936,25.183,48.188c12.875,13.252,28.171,23.86,42.319,35.745
							c28.823,24.211,52.997,53.938,70.825,87.09"/>
						<path fill="none" d="M406.671,315.601c9.305,26.424,27.345,48.898,47.146,68.716c19.801,19.818,41.656,37.535,60.923,57.871
							c17.627,18.605,32.94,39.25,48.206,59.838"/>
						<path fill="none" d="M427.148,306.869c15.032,28.183,30.431,56.859,53.355,79.101c13.596,13.19,29.477,23.749,44.263,35.59
							c30.024,24.049,55.638,53.588,75.192,86.715"/>
						<path fill="none" d="M444.631,303.423c21.25,33.224,43.131,67.148,74.395,91.188c12.684,9.754,26.691,17.691,39.308,27.531
							c14.203,11.076,26.457,24.418,38.496,37.814c8.313,9.25,16.558,18.561,24.735,27.93c3.836,4.395,7.87,9.342,7.9,15.174"/>
						<path fill="none" d="M455.188,297.056c22.19,23.695,44.44,47.448,69.167,68.482c24.121,20.52,50.625,38.481,71.961,61.885
							c19.746,21.658,34.488,47.365,47.846,73.453"/>
						<path fill="none" d="M517.903,319.308c17.768,29.083,40.648,55.031,67.278,76.298c13.663,10.914,28.386,20.68,40.338,33.441
							c8.343,8.908,15.169,19.104,21.954,29.248"/>
					</g>
				</g>
			</g>
			<g>
				<g>
					<g>
						<path fill="#131317" d="M431.735,390.653c-0.29-9.938,0.908-19.784,3.335-29.418c0.096-0.38-0.485-0.54-0.586-0.161
							c-2.559,9.661-3.565,19.598-3.245,29.579C431.249,390.972,431.745,390.974,431.735,390.653L431.735,390.653z"/>
					</g>
				</g>
				<g>
					<g>
						<path fill="#131317" d="M432.602,373.603c1.116-3.299-0.843-6.593-2.055-9.608c-1.433-3.567-2.908-7.113-4.449-10.634
							c-0.097-0.221-0.476-0.061-0.391,0.165c1.127,2.974,2.294,5.93,3.502,8.871c1.324,3.225,4.092,7.542,2.975,11.092
							C432.1,373.756,432.513,373.865,432.602,373.603L432.602,373.603z"/>
					</g>
				</g>
			</g>
			<polygon fill="#131317" points="431.946,376.82 390.155,411.307 430.892,389.334 			"/>
		</g>
		<g>
			<path fill="#D57F6D" d="M537.372,335.958c-40.463,22.022-65.72-7.192-73.907-19.236c4.106-0.373,7.938-0.498,11.422-0.324
				c2.016,0.1,4.007,0.224,5.973,0.398c0.722,0.05,2.488,0.224,2.488,0.224l-2.763-23.914l20.182-0.771l9.779,30.508
				c1.07,0.423,2.165,0.821,3.285,1.219C520.898,326.85,528.588,330.682,537.372,335.958z"/>
			<polygon fill="#131317" points="481.923,304.417 495.719,304.688 482.834,312.575 			"/>
		</g>
		<g>
			<g>
				<path fill="#D57F6D" d="M517.518,269.12c1.724,13.854-5.777,26.723-17.729,32.448c-3.004,1.452-6.316,2.441-9.799,2.874
					c-17.335,2.157-33.159-10.142-35.319-27.502c-1.721-13.829,5.737-26.643,17.611-32.383l-0.003-0.025
					c3.029-1.455,6.363-2.472,9.895-2.911c2.716-0.338,5.377-0.318,7.976,0.011c3.006,0.378,5.892,1.198,8.598,2.391
					c0.104,0.037,0.21,0.074,0.29,0.114C508.81,248.512,516.101,257.736,517.518,269.12z"/>
				<path fill="#D57F6D" d="M456.498,264.664L456.498,264.664c-4.432,0.473-6.211,5.969-2.896,8.949l1.468,1.32L456.498,264.664z"/>
			</g>
			<g>
				<path fill="#131317" d="M586.565,385.534c-1.497,0.186-41.693,5.188-41.693,5.188s-37.231-28.367-38.206-60.82
					c-0.478-15.664-3.955-22.478-7.687-28.232c-4.045-6.142-4.081-11.021-5.407-24.197c0,0-25.672-13.663-21.336-32.909
					l-0.003-0.025c2.908-1.44,6.113-2.441,9.511-2.863c0.025-0.003,0.052-0.007,0.079-0.01c8.59-1.096,17.371,0.432,24.875,4.754
					c20.898,12.037,22.098,33.595,25.717,54.274c4.422,25.454,17.988,32.693,34.734,43.197
					C583.896,354.395,588.038,385.35,586.565,385.534z"/>
				<g>
					<g>
						<path fill="#131317" d="M517.93,262.697c9.727,6.553,15.204,16.496,17.526,27.806c2.146,10.444,1.965,22.067,7.56,31.483
							c2.379,4.002,6.085,5.876,10.326,7.383c5.569,1.979,9.942,5.176,13.489,9.916c7.114,9.507,8.39,21.967,9.728,33.379
							c0.053,0.447,0.757,0.458,0.711,0c-1.125-11.274-2.516-22.872-8.869-32.565c-2.472-3.772-5.744-6.984-9.636-9.267
							c-2.122-1.245-4.502-1.976-6.802-2.81c-3.551-1.288-6.206-3.262-8.262-6.436c-3.115-4.811-4.213-10.952-5.164-16.505
							c-1.04-6.068-1.667-12.194-3.151-18.181c-2.503-10.094-8.515-18.884-17.214-24.618
							C517.912,262.109,517.674,262.524,517.93,262.697L517.93,262.697z"/>
					</g>
				</g>
				<g>
					<g>
						<path fill="#131317" d="M496.507,289.448c-3.323,5.488-1.247,12.538,1.111,17.99c1.073,2.481,2.335,4.863,3.658,7.218
							c2.583,4.596,3.271,9.932,3.868,15.083c1.101,9.498,2.516,19.023,7.138,27.539c3.775,6.955,10.371,13.237,18.388,14.604
							c0.418,0.071,0.604-0.536,0.178-0.646c-19.285-4.997-23.006-26.296-25.094-43.175c-0.484-3.92-1.187-7.795-2.688-11.466
							c-0.974-2.383-2.458-4.578-3.618-6.875c-2.933-5.804-6.269-13.891-2.596-20.069
							C496.985,289.427,496.641,289.227,496.507,289.448L496.507,289.448z"/>
					</g>
				</g>
			</g>
			<g>
				<g>
					<path fill="#D57F6D" d="M492.953,277.382c6.334-5.324,15.617-3.38,11.314,5.036c-4.269,8.35-11.73,3.927-11.73,3.927
						L492.953,277.382z"/>
					<g>
						<g>
							<path fill="#131317" d="M495.646,280.122c1.821-1.893,4.038-3.008,6.555-3.688c0.288-0.078,0.159-0.473-0.119-0.434
								c-2.663,0.373-5.007,1.78-6.84,3.716C494.987,279.984,495.39,280.388,495.646,280.122L495.646,280.122z"/>
						</g>
					</g>
					<g>
						<g>
							<path fill="#131317" d="M496.851,279.563c1.226,1.458,1.221,3.4,0.314,5.016c-0.2,0.356,0.303,0.626,0.535,0.313
								c1.294-1.75,0.971-4.163-0.436-5.741C497.011,278.865,496.611,279.278,496.851,279.563L496.851,279.563z"/>
						</g>
					</g>
				</g>
				<g>
					<path fill="#FFFFFF" d="M505.296,295.645c0,3.359-1.717,6.296-4.33,8.013c-1.493,0.996-3.285,1.568-5.251,1.568
						c-5.3,0-9.58-4.28-9.58-9.581c0-2.887,1.269-5.475,3.284-7.191c1.668-1.493,3.857-2.389,6.296-2.389
						C501.016,286.064,505.296,290.344,505.296,295.645z"/>
					<path fill="#BBA43D" d="M500.966,303.657c-1.493,0.996-3.285,1.568-5.251,1.568c-5.3,0-9.58-4.28-9.58-9.581
						c0-2.887,1.269-5.475,3.284-7.191C492.804,292.932,497.557,299.054,500.966,303.657z"/>
				</g>
			</g>
		</g>
		<g>
			<g>
				<polygon fill="#BBA43D" points="614.508,401.506 557.03,340.296 468.586,439.213 522.822,496.807 				"/>
				<g>
					<defs>
						<polygon id="SVGID_5_" points="614.508,401.506 557.03,340.296 468.586,439.213 522.822,496.807 						"/>
					</defs>
					<clipPath id="SVGID_6_">
						<use xlink:href="#SVGID_5_"  overflow="visible"/>
					</clipPath>
					<path clip-path="url(#SVGID_6_)" fill="none" d="M616.709,391.885c0.411,9.558-0.169,19.158-1.728,28.595
						c-4.55-13.203-2.309-27.83-5.538-41.417c0.053,16.817-0.396,33.633-1.345,50.422c-0.722-1.199-1.178-2.539-1.598-3.875
						c-6.683-21.252-5.722-44.178-10.876-65.851c0.915,26.887,1.829,53.791,1.259,80.687c-2.834-3.543-3.98-8.123-4.749-12.594
						c-2.156-12.539-1.934-25.355-3.09-38.028c-1.079-11.819-3.363-23.529-6.807-34.887c1.004,27.932,2.009,55.864,3.013,83.796
						c0.093,2.588,0.174,5.254-0.734,7.678c-1.15-0.572-1.698-1.887-2.108-3.104c-2.436-7.229-3.379-14.865-4.12-22.455
						c-2.45-25.098-2.838-50.395-1.159-75.554"/>
					<path clip-path="url(#SVGID_6_)" fill="none" d="M467.791,421.123c19.159,25.965,35.252,54.188,47.839,83.9"/>
					<path clip-path="url(#SVGID_6_)" fill="none" d="M570.685,345.828c-8.066,41.693-6.231,85.268,5.312,126.137"/>
					<path clip-path="url(#SVGID_6_)" fill="none" d="M558.822,324.526c-7.706,53.716-2.015,109.302,16.419,160.341"/>
				</g>
			</g>
			<path fill="#D57F6D" d="M531.729,418.852c-0.938-3.756-5.854-20.766-2.098-20.295c3.756,0.469,11.867,18.887,13.086,20.295
				s22.817,33.559,22.817,33.559l9.021-9.375h27.596c0,0,25.821,57.975-16.432,76.754s-80.567-74.434-81.947-77.094
				c-2.86-5.514-14.934-31.342-10.774-34.221s9.598,9.117,9.598,9.117s-13.586-19.996-10.072-22.234
				c3.514-2.24,7.513,4.479,7.513,4.479s-5.438-10.238-1.919-11.517c3.52-1.28,9.758,10.238,9.758,10.238s-5.759-11.198-1.6-12.478
				C510.434,384.799,531.729,418.852,531.729,418.852z"/>
			<g>
				<g>
					<g>
						<path fill="#131317" d="M496.986,409.421c2.934,5.42,5.885,10.825,8.965,16.164c0.149,0.259,0.538,0.029,0.398-0.232
							c-2.902-5.438-5.931-10.8-8.98-16.156C497.228,408.947,496.85,409.169,496.986,409.421L496.986,409.421z"/>
					</g>
				</g>
				<g>
					<g>
						<path fill="#131317" d="M499.925,400.114c3.655,6.539,7.261,13.101,11.011,19.588c0.113,0.195,0.411,0.021,0.303-0.178
							c-3.602-6.57-7.341-13.056-11.036-19.572C500.1,399.771,499.823,399.934,499.925,400.114L499.925,400.114z"/>
					</g>
				</g>
				<g>
					<g>
						<path fill="#131317" d="M506.428,396.055c2.966,7.154,6.543,14.062,11.08,20.351c0.171,0.237,0.562,0.022,0.398-0.232
							c-4.155-6.491-7.932-13.159-10.926-20.271C506.84,395.568,506.286,395.713,506.428,396.055L506.428,396.055z"/>
					</g>
				</g>
				<g>
					<g>
						<path fill="#131317" d="M564.346,450.477c4.827,6.19,9.14,12.718,13.329,19.351c0.158,0.251,0.544,0.028,0.398-0.232
							c-3.837-6.898-8.414-13.353-13.306-19.54C564.528,449.753,564.113,450.178,564.346,450.477L564.346,450.477z"/>
					</g>
				</g>
			</g>
		</g>
		<g>
			<path fill="#E4E2D1" d="M193.189,149.934l-4.085-4.926c1.427-1.95,2.536-4.074,3.32-6.294l6.375,0.595
				c1.211,0.113,2.285-0.778,2.397-1.989l0.709-7.597c0.113-1.211-0.777-2.285-1.988-2.397l-6.375-0.595
				c-0.36-2.328-1.056-4.619-2.098-6.8l4.926-4.085c0.937-0.776,1.066-2.165,0.29-3.101l-4.871-5.874
				c-0.776-0.937-2.165-1.066-3.101-0.29l-4.926,4.085c-1.95-1.427-4.074-2.536-6.294-3.32l0.595-6.375
				c0.113-1.211-0.777-2.285-1.988-2.397l-7.597-0.709c-1.211-0.113-2.285,0.777-2.398,1.988l-0.595,6.375
				c-2.328,0.36-4.619,1.056-6.8,2.098l-4.085-4.925c-0.776-0.937-2.165-1.066-3.102-0.29l-5.873,4.871
				c-0.937,0.776-1.066,2.165-0.29,3.101l4.084,4.926c-1.427,1.95-2.535,4.073-3.32,6.294l-6.374-0.595
				c-1.211-0.113-2.285,0.777-2.398,1.989l-0.709,7.597c-0.113,1.211,0.777,2.285,1.989,2.397l6.375,0.595
				c0.359,2.328,1.056,4.619,2.098,6.8l-4.926,4.085c-0.936,0.776-1.065,2.165-0.289,3.101l4.871,5.874
				c0.777,0.937,2.166,1.066,3.102,0.29l4.926-4.085c1.95,1.427,4.073,2.536,6.294,3.32l-0.595,6.375
				c-0.113,1.211,0.777,2.284,1.989,2.397l7.597,0.709c1.211,0.113,2.285-0.777,2.397-1.988l0.595-6.375
				c2.328-0.36,4.619-1.056,6.8-2.098l4.085,4.926c0.776,0.937,2.165,1.066,3.101,0.29l5.874-4.871
				C193.836,152.259,193.965,150.87,193.189,149.934z M151.955,128.871c0.905-9.559,9.388-16.574,18.946-15.669
				c9.559,0.905,16.574,9.387,15.669,18.946s-9.388,16.573-18.946,15.669C158.065,146.911,151.05,138.428,151.955,128.871z"/>
		</g>
	</g>
</g>
<text transform="matrix(1 0 0 1 -59.6313 850.6523)" font-family="'MyriadPro-Regular'" font-size="12">https://www.freepik.es/vector-gratis/concepto-planificacion-empresarial-diseno-plano-dibujado-mano_19964721.htm#fromView=search&amp;page=1&amp;position=8&amp;uuid=447ce81e-983a-4588-a128-39e22d3f56e8</text>
</svg>
